<?xml version="1.0" standalone="no"?>
<!DOCTYPE svg PUBLIC "-//W3C//DTD SVG 20010904//EN"
 "http://www.w3.org/TR/2001/REC-SVG-20010904/DTD/svg10.dtd">
<svg version="1.0" xmlns="http://www.w3.org/2000/svg"
 width="677.000000pt" height="369.000000pt" viewBox="0 0 677.000000 369.000000"
 preserveAspectRatio="xMidYMid meet">

<g transform="translate(0.000000,369.000000) scale(0.100000,-0.100000)"
fill="#000000" stroke="none">
<path d="M1522 2572 c-36 -36 -78 -64 -136 -91 -135 -62 -216 -154 -216 -244
0 -34 -2 -36 -37 -42 -61 -10 -109 -35 -134 -69 -23 -29 -24 -40 -27 -208 -2
-98 -1 -178 3 -178 3 0 17 7 30 16 24 16 25 19 25 146 l0 130 22 -14 c24 -16
31 -28 45 -73 6 -23 15 -31 36 -33 49 -6 73 33 45 77 -17 28 10 109 42 124 30
15 38 52 15 77 -19 21 -13 55 18 110 34 58 48 70 142 117 50 25 111 60 138 79
l47 34 48 -34 c66 -47 162 -95 142 -70 -14 16 -13 17 3 11 9 -4 17 -2 17 4 0
7 -11 9 -24 7 -22 -4 -23 -2 -16 18 7 19 5 23 -16 28 -13 4 -35 16 -47 27 -12
11 -42 39 -67 62 l-45 42 -53 -53z m-357 -453 c12 -18 -16 -99 -38 -110 -16
-9 -25 -5 -54 24 -31 30 -34 37 -23 56 18 35 99 56 115 30z"/>
<path d="M2340 2088 c-24 -10 -89 -30 -277 -84 -51 -15 -93 -29 -93 -33 1 -3
23 -24 50 -46 28 -22 50 -44 50 -49 0 -9 -90 -112 -195 -224 l-61 -64 -54 84
c-150 232 -147 228 -193 228 -60 0 -57 6 -211 -325 -26 -55 -51 -108 -57 -118
-6 -11 -25 -52 -43 -91 l-33 -73 94 27 94 26 80 162 c43 90 83 161 88 158 5
-3 36 -50 70 -103 95 -152 101 -158 156 -158 46 0 49 2 118 77 131 140 222
239 244 266 l22 26 59 -51 58 -51 13 86 c6 48 20 130 30 182 36 181 36 167 -9
148z"/>
<path d="M2530 1806 l0 -176 35 0 35 0 0 105 c0 58 3 105 8 105 4 0 39 -48 77
-105 65 -97 72 -105 100 -102 l30 2 0 170 0 170 -32 3 -33 3 0 -108 -1 -108
-25 30 c-15 17 -50 64 -78 105 -44 64 -57 75 -84 78 l-32 3 0 -175z"/>
<path d="M3404 1966 c-97 -42 -76 -162 32 -182 55 -10 94 -31 94 -52 0 -28
-21 -42 -62 -42 -29 0 -41 6 -54 25 -12 18 -25 25 -49 25 -31 0 -32 -1 -26
-32 5 -22 18 -41 41 -56 30 -21 44 -23 104 -20 60 3 71 7 92 31 17 20 24 40
24 68 0 50 -31 81 -98 99 -52 14 -92 35 -92 50 0 18 33 40 61 40 19 0 38 -9
53 -25 44 -48 96 -22 61 31 -32 49 -117 68 -181 40z"/>
<path d="M4700 1918 c0 -32 -4 -58 -10 -58 -5 0 -10 4 -10 9 0 13 -39 25 -75
23 -90 -6 -126 -156 -56 -231 37 -39 99 -44 131 -9 l20 22 0 -23 c0 -19 5 -22
33 -19 l32 3 2 150 c2 190 1 194 -37 193 -30 -1 -30 -1 -30 -60z m-34 -86 c39
-25 43 -90 10 -129 -24 -27 -26 -27 -52 -13 -34 18 -48 63 -33 107 13 39 46
55 75 35z"/>
<path d="M4830 1805 l0 -165 35 0 34 0 3 113 3 112 45 -112 c41 -104 46 -113
70 -113 23 0 29 7 44 55 9 30 29 80 44 112 l27 58 3 -112 3 -113 34 0 35 0 0
165 0 165 -46 0 -45 0 -26 -57 c-14 -32 -34 -82 -45 -110 -10 -29 -23 -55 -27
-58 -5 -2 -16 17 -26 43 -10 26 -31 77 -48 115 l-30 67 -43 0 -44 0 0 -165z"/>
<path d="M3180 1924 c0 -17 -6 -28 -20 -31 -13 -3 -20 -14 -20 -28 0 -14 7
-25 20 -28 18 -5 20 -14 20 -90 0 -77 2 -87 22 -101 29 -21 98 -21 98 -2 0 28
-12 46 -31 46 -17 0 -19 8 -19 75 0 73 1 75 25 75 20 0 25 5 25 25 0 20 -5 25
-25 25 -21 0 -25 5 -25 30 0 28 -3 30 -35 30 -31 0 -35 -3 -35 -26z"/>
<path d="M2953 1889 c-17 -5 -43 -23 -57 -40 -22 -25 -26 -41 -26 -90 0 -50 4
-63 29 -91 24 -27 36 -32 88 -36 56 -4 63 -2 93 25 19 17 30 35 26 41 -10 17
-63 15 -70 -3 -6 -16 -53 -20 -72 -7 -16 11 -35 50 -27 55 5 3 45 3 91 2 l82
-3 0 39 c0 31 -7 47 -32 73 -36 37 -76 48 -125 35z m75 -61 c26 -26 13 -38
-38 -38 -34 0 -50 4 -50 13 0 21 22 37 50 37 14 0 31 -5 38 -12z"/>
<path d="M3773 1892 c-13 -2 -30 -13 -38 -25 l-15 -21 0 22 c0 19 -5 22 -35
22 l-35 0 0 -174 0 -174 35 -4 35 -4 0 68 0 68 20 -20 c20 -20 55 -25 97 -14
59 16 84 142 42 210 -11 19 -21 34 -22 34 -1 0 -16 4 -32 8 -17 4 -40 6 -52 4z
m41 -74 c23 -32 20 -94 -4 -118 -26 -26 -36 -25 -67 6 -21 21 -25 32 -20 65 3
22 11 46 17 54 18 22 57 18 74 -7z"/>
<path d="M3992 1874 c-32 -22 -52 -67 -52 -114 0 -82 45 -130 123 -130 69 0
117 29 117 71 0 15 -57 10 -70 -6 -19 -23 -66 -19 -84 7 -28 39 -21 50 32 47
26 -2 64 -2 85 -1 36 2 37 3 37 41 0 30 -7 45 -32 70 -27 26 -39 31 -83 31
-30 0 -60 -6 -73 -16z m118 -53 c15 -30 14 -31 -45 -31 -59 0 -60 1 -45 31 7
13 21 19 45 19 24 0 38 -6 45 -19z"/>
<path d="M4261 1855 c-27 -32 -31 -43 -31 -96 0 -56 3 -64 34 -95 31 -31 40
-34 90 -34 47 0 61 4 87 28 19 17 29 34 25 40 -10 17 -63 15 -70 -3 -13 -34
-106 -3 -106 35 0 11 3 12 80 14 104 4 100 2 100 41 0 24 -9 45 -31 70 -29 32
-35 35 -89 35 -54 0 -60 -3 -89 -35z m133 -37 c15 -24 5 -30 -53 -26 l-52 3
17 23 c19 27 71 27 88 0z"/>
<path d="M5301 1864 c-17 -14 -31 -30 -31 -35 0 -15 52 -10 71 7 22 20 64 12
73 -13 10 -24 -14 -39 -74 -47 -34 -5 -54 -13 -65 -29 -46 -65 27 -139 106
-107 16 7 29 17 29 22 0 5 5 6 10 3 6 -4 8 -11 5 -16 -4 -5 9 -9 27 -9 l33 0
-3 97 c-3 90 -6 100 -30 126 -36 38 -107 39 -151 1z m119 -136 c0 -48 -62 -77
-91 -42 -23 28 13 60 74 63 11 1 17 -6 17 -21z"/>
<path d="M5550 1766 l0 -126 30 0 30 0 0 80 c0 67 3 83 20 100 11 11 29 20 39
20 17 0 31 18 31 41 0 17 -47 9 -65 -11 -18 -20 -30 -19 -30 3 0 7 -12 13 -27
15 l-28 3 0 -125z"/>
<path d="M5780 1873 c-46 -32 -54 -45 -58 -99 -4 -45 0 -60 19 -89 43 -63 140
-72 191 -17 74 79 19 222 -85 222 -24 0 -53 -8 -67 -17z m116 -80 c14 -31 13
-38 -3 -71 -16 -32 -23 -37 -53 -37 -31 0 -35 3 -45 40 -31 107 60 168 101 68z"/>
<path d="M6063 1869 c-37 -24 -52 -63 -47 -126 3 -56 28 -90 74 -104 71 -22
150 13 150 66 0 32 -47 32 -62 0 -13 -29 -57 -34 -82 -10 -38 38 -24 135 21
147 27 7 63 -9 63 -27 0 -10 10 -15 30 -15 40 0 40 30 -1 64 -39 33 -100 35
-146 5z"/>
<path d="M1330 1839 c-30 -10 -64 -23 -75 -28 -11 -5 -58 -26 -105 -47 -95
-43 -151 -75 -260 -148 -71 -47 -240 -183 -240 -193 0 -5 -6 -9 99 61 141 94
383 206 545 252 70 20 93 39 116 98 12 32 0 33 -80 5z"/>
<path d="M2530 1406 c0 -36 5 -68 10 -71 6 -4 10 20 10 64 0 41 -4 71 -10 71
-6 0 -10 -28 -10 -64z"/>
<path d="M2587 1463 c-11 -10 -8 -121 3 -128 6 -4 10 12 10 39 0 53 9 58 32
18 9 -15 25 -35 36 -45 19 -17 19 -16 26 43 4 33 4 65 1 70 -14 22 -24 7 -27
-37 l-3 -48 -30 47 c-30 48 -36 53 -48 41z"/>
<path d="M2720 1460 c0 -5 9 -10 20 -10 18 0 20 -7 20 -61 0 -37 4 -58 10 -54
6 3 10 31 10 61 0 47 2 54 20 54 11 0 20 5 20 10 0 6 -22 10 -50 10 -27 0 -50
-4 -50 -10z"/>
<path d="M2850 1400 l0 -70 40 0 c22 0 40 5 40 10 0 6 -13 10 -30 10 -23 0
-30 4 -30 20 0 11 7 21 15 21 28 3 33 4 41 12 4 4 -7 7 -24 7 -25 0 -32 4 -32
20 0 16 7 20 30 20 17 0 30 5 30 10 0 6 -18 10 -40 10 l-40 0 0 -70z"/>
<path d="M2962 1403 c3 -66 20 -90 26 -38 4 33 18 32 37 -5 16 -32 42 -43 30
-12 -15 36 -17 52 -6 52 15 0 14 43 -1 58 -7 7 -29 12 -50 12 l-39 0 3 -67z
m73 37 c8 -13 -13 -40 -31 -40 -8 0 -14 10 -14 25 0 18 5 25 19 25 11 0 23 -5
26 -10z"/>
<path d="M3084 1456 c-9 -22 0 -121 11 -121 6 0 12 20 15 43 l5 44 33 -47 c41
-58 54 -50 50 30 -4 73 -25 87 -30 20 l-3 -47 -29 46 c-30 48 -43 56 -52 32z"/>
<path d="M3228 1435 c-2 -19 -2 -51 0 -70 4 -33 6 -35 43 -35 21 0 39 5 39 10
0 6 -13 10 -30 10 -23 0 -30 4 -30 20 0 13 7 20 19 20 11 0 23 5 26 10 4 6 -5
10 -19 10 -19 0 -26 5 -26 20 0 16 7 20 30 20 17 0 30 5 30 10 0 6 -18 10 -39
10 -37 0 -39 -2 -43 -35z"/>
<path d="M3335 1460 c3 -5 15 -10 26 -10 17 0 19 -7 19 -62 0 -74 12 -71 14 4
1 47 4 53 24 56 44 7 21 22 -34 22 -34 0 -53 -4 -49 -10z"/>
<path d="M3510 1415 c0 -48 3 -57 26 -72 24 -15 29 -15 53 -2 23 13 26 22 29
72 2 35 -1 57 -8 57 -5 0 -10 -21 -10 -49 0 -54 -17 -77 -50 -66 -17 5 -20 15
-20 61 0 30 -4 54 -10 54 -5 0 -10 -25 -10 -55z"/>
<path d="M3640 1460 c0 -5 9 -10 20 -10 18 0 20 -7 20 -54 0 -30 5 -58 10 -61
6 -4 10 17 10 54 0 54 2 61 19 61 11 0 23 5 26 10 4 6 -15 10 -49 10 -31 0
-56 -4 -56 -10z"/>
<path d="M3770 1406 c0 -36 5 -68 10 -71 6 -4 10 20 10 64 0 41 -4 71 -10 71
-6 0 -10 -28 -10 -64z"/>
<path d="M3820 1407 c0 -35 2 -66 4 -68 3 -3 24 -2 48 0 l43 5 -35 5 c-35 6
-35 6 -38 64 -4 78 -22 73 -22 -6z"/>
<path d="M3930 1406 c0 -36 5 -68 10 -71 6 -4 10 20 10 64 0 41 -4 71 -10 71
-6 0 -10 -28 -10 -64z"/>
<path d="M3980 1460 c0 -5 9 -10 20 -10 18 0 20 -7 20 -61 0 -37 4 -58 10 -54
6 3 10 31 10 61 0 47 2 54 20 54 11 0 20 5 20 10 0 6 -22 10 -50 10 -27 0 -50
-4 -50 -10z"/>
<path d="M4108 1435 c-5 -48 2 -106 13 -99 5 3 9 32 9 64 0 65 -15 90 -22 35z"/>
<path d="M4160 1402 l0 -69 40 -1 c22 -1 40 3 40 8 0 6 -13 10 -30 10 -23 0
-30 4 -30 20 0 15 7 20 24 20 14 0 28 5 31 10 4 6 -7 10 -24 10 -24 0 -31 4
-31 20 0 16 7 20 30 20 17 0 30 5 30 10 0 6 -18 10 -40 10 l-40 0 0 -68z"/>
<path d="M4281 1456 c-19 -23 -7 -43 34 -60 19 -8 35 -20 35 -26 0 -17 -31
-24 -52 -11 -27 16 -38 3 -14 -15 23 -17 40 -18 67 -4 33 18 24 50 -21 67 -22
9 -40 20 -40 25 0 16 32 21 52 9 17 -11 19 -10 16 6 -4 24 -60 30 -77 9z"/>
<path d="M4455 1460 c-4 -6 -5 -20 -4 -33 1 -12 -2 -30 -6 -41 -13 -31 8 -51
52 -51 39 0 40 1 41 34 1 27 -1 32 -10 23 -7 -7 -16 -12 -20 -12 -12 0 -10 34
4 48 8 8 8 15 -2 27 -14 17 -46 20 -55 5z m37 -32 c-15 -15 -26 -4 -18 18 5
13 9 15 18 6 9 -9 9 -15 0 -24z m-2 -53 c7 -9 10 -18 7 -21 -10 -11 -37 5 -37
21 0 19 14 19 30 0z"/>
<path d="M4620 1398 c0 -75 16 -86 22 -15 l3 39 33 -47 c18 -25 37 -43 42 -40
13 8 13 135 1 135 -6 0 -11 -21 -13 -47 l-3 -48 -34 48 c-19 26 -38 47 -43 47
-4 0 -8 -32 -8 -72z"/>
<path d="M4760 1400 l0 -70 39 0 c22 0 43 5 46 10 4 6 -8 10 -30 10 -32 0 -36
3 -33 22 2 14 11 22 25 23 36 3 40 15 5 15 -25 0 -32 4 -32 20 0 16 7 20 30
20 17 0 30 5 30 10 0 6 -18 10 -40 10 l-40 0 0 -70z"/>
<path d="M4870 1460 c0 -5 9 -10 20 -10 18 0 20 -7 20 -61 0 -37 4 -58 10 -54
6 3 10 31 10 61 0 47 2 54 20 54 11 0 20 5 20 10 0 6 -22 10 -50 10 -27 0 -50
-4 -50 -10z"/>
<path d="M4991 1453 c1 -32 34 -118 44 -118 6 0 17 20 24 45 l15 45 11 -37
c11 -40 30 -65 38 -51 10 17 38 125 33 130 -11 11 -25 -10 -31 -48 -8 -45 -19
-42 -32 10 -13 49 -27 48 -42 -4 -15 -53 -26 -51 -35 5 -6 39 -27 57 -25 23z"/>
<path d="M5199 1460 c-23 -14 -32 -58 -19 -91 15 -34 53 -46 86 -24 32 21 35
98 5 115 -24 12 -51 12 -72 0z m70 -32 c10 -29 2 -65 -16 -73 -42 -16 -76 31
-53 74 15 28 58 28 69 -1z"/>
<path d="M5327 1463 c-11 -10 -8 -121 3 -128 6 -3 10 5 10 19 0 14 5 28 12 32
10 7 19 -1 44 -43 7 -10 15 -15 19 -11 3 3 0 15 -7 27 -10 17 -10 25 0 41 17
28 15 48 -7 60 -22 11 -64 13 -74 3z m69 -24 c9 -16 -21 -43 -40 -36 -9 4 -16
16 -16 27 0 15 7 20 24 20 14 0 28 -5 32 -11z"/>
<path d="M5448 1464 c-10 -9 -10 -118 -1 -127 4 -4 13 7 21 25 l13 33 21 -27
c11 -16 26 -28 34 -28 11 0 8 10 -12 35 l-27 36 23 24 c13 14 20 28 16 32 -4
5 -20 -7 -35 -24 -15 -18 -30 -33 -34 -33 -3 0 -7 14 -9 31 -2 17 -6 27 -10
23z"/>
<path d="M5620 1460 c0 -5 9 -10 21 -10 18 0 20 -6 19 -47 -2 -67 -1 -75 10
-68 6 3 10 31 10 61 0 40 4 54 14 54 8 0 18 5 21 10 4 6 -13 10 -44 10 -28 0
-51 -4 -51 -10z"/>
<path d="M5751 1444 c-24 -30 -24 -34 -11 -68 25 -68 120 -49 120 25 0 63 -71
91 -109 43z m79 -18 c18 -49 -20 -95 -55 -66 -15 13 -21 71 -8 83 16 17 54 6
63 -17z"/>
<path d="M5900 1450 c-29 -29 -24 -77 13 -104 26 -19 30 -19 54 -6 39 22 50
65 26 99 -26 34 -65 39 -93 11z m75 -44 c0 -42 -20 -64 -49 -53 -11 4 -16 18
-16 45 0 46 6 54 40 50 22 -3 25 -8 25 -42z"/>
<path d="M6032 1403 l3 -68 34 -3 c18 -2 38 1 44 7 8 8 2 11 -21 11 -31 0 -31
0 -34 57 -2 35 -8 58 -16 61 -10 3 -12 -12 -10 -65z"/>
<path d="M6153 1463 c-7 -2 -13 -15 -13 -29 0 -18 9 -27 35 -38 19 -8 35 -20
35 -26 0 -17 -29 -23 -45 -10 -9 7 -19 10 -23 6 -13 -14 32 -37 58 -31 49 13
47 60 -4 73 -38 10 -49 42 -14 42 13 0 29 -5 36 -12 9 -9 12 -8 12 4 0 24 -43
35 -77 21z"/>
</g>
</svg>
